<svg version="1.1" xmlns="http://www.w3.org/2000/svg" viewBox="0 0 221.9020702991154 161.4752112338856" width="443.8041405982308" height="322.9504224677712">
  <!-- svg-source:excalidraw -->
  
  <defs>
    <style class="style-fonts">
      @font-face {
        font-family: "Virgil";
        src: url("https://excalidraw.com/Virgil.woff2");
      }
      @font-face {
        font-family: "Cascadia";
        src: url("https://excalidraw.com/Cascadia.woff2");
      }
      @font-face {
        font-family: "Assistant";
        src: url("https://excalidraw.com/Assistant-Regular.woff2");
      }
    </style>
    
  </defs>
  <g stroke-opacity="0.5" fill-opacity="0.5" stroke-linecap="round" transform="translate(31.55647550069841 132.59084600559163) rotate(0 57.728505907687804 9.442182614146986)"><path d="M0.17 2.8 C0.17 2.8, 0.17 2.8, 0.17 2.8 M0.17 2.8 C0.17 2.8, 0.17 2.8, 0.17 2.8 M-0.09 9.2 C2.92 5.73, 5.93 2.27, 7.78 0.14 M-0.09 9.2 C2.12 6.66, 4.33 4.12, 7.78 0.14 M0.3 14.84 C3.48 11.19, 6.65 7.54, 12.77 0.5 M0.3 14.84 C3.1 11.62, 5.9 8.4, 12.77 0.5 M2.67 18.22 C7.95 12.15, 13.23 6.07, 18.41 0.11 M2.67 18.22 C6.76 13.51, 10.86 8.8, 18.41 0.11 M7.65 18.58 C11.28 14.41, 14.91 10.23, 23.4 0.47 M7.65 18.58 C13.49 11.87, 19.32 5.16, 23.4 0.47 M12.64 18.94 C16.46 14.55, 20.28 10.16, 29.04 0.07 M12.64 18.94 C17.31 13.57, 21.98 8.19, 29.04 0.07 M18.28 18.54 C23.5 12.54, 28.72 6.53, 34.03 0.43 M18.28 18.54 C23.29 12.78, 28.3 7.02, 34.03 0.43 M23.27 18.9 C28.55 12.83, 33.83 6.76, 39.67 0.04 M23.27 18.9 C28.4 13, 33.53 7.1, 39.67 0.04 M28.26 19.26 C31.76 15.23, 35.27 11.2, 44.66 0.4 M28.26 19.26 C32.83 14, 37.41 8.74, 44.66 0.4 M33.9 18.87 C39.5 12.42, 45.11 5.98, 50.3 0 M33.9 18.87 C39.4 12.55, 44.89 6.23, 50.3 0 M38.89 19.23 C45.03 12.17, 51.17 5.1, 55.29 0.36 M38.89 19.23 C44.6 12.66, 50.31 6.09, 55.29 0.36 M44.53 18.84 C48.2 14.62, 51.87 10.4, 60.93 -0.03 M44.53 18.84 C49.05 13.64, 53.56 8.44, 60.93 -0.03 M49.52 19.2 C53.68 14.41, 57.84 9.62, 65.92 0.33 M49.52 19.2 C52.85 15.36, 56.19 11.52, 65.92 0.33 M55.16 18.8 C61.58 11.42, 67.99 4.04, 71.56 -0.07 M55.16 18.8 C59.92 13.32, 64.68 7.85, 71.56 -0.07 M60.15 19.16 C65.62 12.86, 71.09 6.57, 76.55 0.29 M60.15 19.16 C63.51 15.29, 66.87 11.42, 76.55 0.29 M65.79 18.77 C70.06 13.86, 74.32 8.96, 82.19 -0.1 M65.79 18.77 C70.21 13.69, 74.62 8.61, 82.19 -0.1 M70.78 19.13 C74.69 14.62, 78.61 10.12, 87.18 0.26 M70.78 19.13 C75.64 13.53, 80.5 7.94, 87.18 0.26 M76.42 18.73 C81.74 12.61, 87.06 6.49, 92.17 0.62 M76.42 18.73 C81.68 12.68, 86.94 6.63, 92.17 0.62 M81.41 19.09 C85.26 14.66, 89.12 10.22, 97.81 0.22 M81.41 19.09 C86.39 13.36, 91.37 7.64, 97.81 0.22 M87.05 18.7 C92.17 12.81, 97.29 6.91, 102.8 0.58 M87.05 18.7 C92.41 12.53, 97.77 6.37, 102.8 0.58 M92.04 19.06 C97.48 12.8, 102.92 6.54, 108.44 0.19 M92.04 19.06 C95.9 14.62, 99.76 10.17, 108.44 0.19 M97.68 18.66 C100.91 14.95, 104.14 11.23, 112.77 1.3 M97.68 18.66 C103.35 12.14, 109.01 5.63, 112.77 1.3 M102.67 19.02 C107.39 13.59, 112.12 8.15, 115.13 4.68 M102.67 19.02 C107.45 13.52, 112.24 8.02, 115.13 4.68 M108.31 18.63 C111.12 15.4, 113.92 12.17, 115.53 10.33 M108.31 18.63 C110.19 16.47, 112.07 14.31, 115.53 10.33 M1.55 18.03 C1.55 18.03, 1.55 18.03, 1.55 18.03 M1.55 18.03 C1.55 18.03, 1.55 18.03, 1.55 18.03 M7.95 18.29 C5.49 16.15, 3.03 14.01, 0.4 11.73 M7.95 18.29 C6.08 16.66, 4.21 15.03, 0.4 11.73 M14.35 18.55 C9.45 14.3, 4.56 10.04, 0.01 6.09 M14.35 18.55 C9.89 14.68, 5.44 10.81, 0.01 6.09 M19.99 18.16 C14.43 13.32, 8.86 8.48, 1.12 1.76 M19.99 18.16 C13.86 12.82, 7.72 7.49, 1.12 1.76 M26.39 18.42 C20.71 13.48, 15.03 8.55, 5.26 0.05 M26.39 18.42 C18.22 11.31, 10.04 4.21, 5.26 0.05 M32.79 18.68 C27.18 13.81, 21.57 8.93, 10.9 -0.35 M32.79 18.68 C25.99 12.77, 19.18 6.85, 10.9 -0.35 M38.43 18.29 C30.56 11.44, 22.69 4.6, 17.3 -0.08 M38.43 18.29 C32.63 13.25, 26.84 8.21, 17.3 -0.08 M44.83 18.55 C36.88 11.64, 28.94 4.73, 22.94 -0.48 M44.83 18.55 C37.02 11.76, 29.22 4.98, 22.94 -0.48 M50.47 18.15 C45.95 14.22, 41.42 10.29, 29.34 -0.22 M50.47 18.15 C42.46 11.19, 34.45 4.22, 29.34 -0.22 M56.87 18.41 C51.36 13.62, 45.84 8.83, 35.74 0.04 M56.87 18.41 C51.64 13.87, 46.42 9.33, 35.74 0.04 M63.27 18.67 C54.56 11.11, 45.85 3.54, 41.38 -0.35 M63.27 18.67 C54.73 11.26, 46.2 3.84, 41.38 -0.35 M68.91 18.28 C60.72 11.16, 52.54 4.05, 47.78 -0.09 M68.91 18.28 C62.56 12.76, 56.21 7.24, 47.78 -0.09 M75.31 18.54 C69.4 13.41, 63.5 8.28, 53.42 -0.48 M75.31 18.54 C67.04 11.35, 58.77 4.17, 53.42 -0.48 M80.95 18.15 C75.2 13.15, 69.45 8.15, 59.82 -0.22 M80.95 18.15 C75.32 13.25, 69.69 8.36, 59.82 -0.22 M87.35 18.41 C82.74 14.4, 78.12 10.39, 66.22 0.04 M87.35 18.41 C81.07 12.95, 74.79 7.49, 66.22 0.04 M93.75 18.67 C88.55 14.15, 83.36 9.64, 71.86 -0.36 M93.75 18.67 C88.75 14.33, 83.76 9.98, 71.86 -0.36 M99.39 18.28 C91.49 11.41, 83.59 4.54, 78.26 -0.09 M99.39 18.28 C93.36 13.04, 87.34 7.8, 78.26 -0.09 M105.79 18.54 C99.29 12.89, 92.79 7.24, 83.9 -0.49 M105.79 18.54 C99.18 12.79, 92.57 7.05, 83.9 -0.49 M112.19 18.8 C105.42 12.91, 98.65 7.03, 90.3 -0.23 M112.19 18.8 C104.27 11.92, 96.36 5.04, 90.3 -0.23 M114.81 15.78 C110.15 11.73, 105.49 7.68, 96.7 0.03 M114.81 15.78 C108.72 10.49, 102.63 5.19, 96.7 0.03 M115.92 11.45 C111.31 7.44, 106.7 3.43, 102.34 -0.36 M115.92 11.45 C111.46 7.57, 106.99 3.68, 102.34 -0.36 M115.53 5.81 C114.06 4.53, 112.58 3.25, 108.74 -0.1 M115.53 5.81 C114.09 4.55, 112.64 3.29, 108.74 -0.1" stroke="#ff8787" stroke-width="0.5" fill="none"></path><path d="M4.72 0 C34.66 0, 64.59 0, 110.74 0 M4.72 0 C43.07 0, 81.42 0, 110.74 0 M110.74 0 C113.88 0, 115.46 1.57, 115.46 4.72 M110.74 0 C113.88 0, 115.46 1.57, 115.46 4.72 M115.46 4.72 C115.46 6.8, 115.46 8.88, 115.46 14.16 M115.46 4.72 C115.46 7.11, 115.46 9.5, 115.46 14.16 M115.46 14.16 C115.46 17.31, 113.88 18.88, 110.74 18.88 M115.46 14.16 C115.46 17.31, 113.88 18.88, 110.74 18.88 M110.74 18.88 C75.51 18.88, 40.28 18.88, 4.72 18.88 M110.74 18.88 C74.29 18.88, 37.85 18.88, 4.72 18.88 M4.72 18.88 C1.57 18.88, 0 17.31, 0 14.16 M4.72 18.88 C1.57 18.88, 0 17.31, 0 14.16 M0 14.16 C0 11.69, 0 9.22, 0 4.72 M0 14.16 C0 12.06, 0 9.95, 0 4.72 M0 4.72 C0 1.57, 1.57 0, 4.72 0 M0 4.72 C0 1.57, 1.57 0, 4.72 0" stroke="transparent" stroke-width="1" fill="none"></path></g><g stroke-opacity="0.5" fill-opacity="0.5" stroke-linecap="round" transform="translate(30.486601786867936 105.07894162140383) rotate(0 55.90617072750081 9.121783139870786)"><path d="M1.21 1.06 C1.21 1.06, 1.21 1.06, 1.21 1.06 M1.21 1.06 C1.21 1.06, 1.21 1.06, 1.21 1.06 M0.95 7.45 C2.29 5.92, 3.63 4.38, 7.51 -0.09 M0.95 7.45 C3.02 5.08, 5.08 2.7, 7.51 -0.09 M0.69 13.85 C4.31 9.69, 7.92 5.54, 12.5 0.27 M0.69 13.85 C3.53 10.58, 6.37 7.31, 12.5 0.27 M2.4 17.98 C8.53 10.93, 14.66 3.87, 18.14 -0.13 M2.4 17.98 C6.36 13.42, 10.33 8.86, 18.14 -0.13 M7.38 18.34 C11.24 13.91, 15.1 9.47, 23.13 0.23 M7.38 18.34 C11.12 14.05, 14.85 9.76, 23.13 0.23 M12.37 18.7 C17.6 12.69, 22.83 6.68, 28.77 -0.16 M12.37 18.7 C18.31 11.87, 24.26 5.03, 28.77 -0.16 M18.01 18.31 C23.1 12.47, 28.18 6.62, 33.76 0.2 M18.01 18.31 C22.91 12.68, 27.8 7.05, 33.76 0.2 M23 18.67 C28.63 12.2, 34.25 5.73, 39.4 -0.2 M23 18.67 C26.69 14.43, 30.37 10.19, 39.4 -0.2 M28.65 18.28 C32.58 13.75, 36.51 9.23, 44.39 0.16 M28.65 18.28 C34.07 12.04, 39.49 5.8, 44.39 0.16 M33.63 18.64 C37.01 14.75, 40.39 10.86, 50.03 -0.23 M33.63 18.64 C39.38 12.03, 45.12 5.42, 50.03 -0.23 M39.28 18.24 C43.66 13.2, 48.04 8.16, 55.02 0.13 M39.28 18.24 C42.46 14.57, 45.65 10.9, 55.02 0.13 M44.26 18.6 C49.9 12.11, 55.55 5.62, 60.66 -0.27 M44.26 18.6 C48.9 13.26, 53.54 7.93, 60.66 -0.27 M49.91 18.21 C54.67 12.72, 59.44 7.23, 65.65 0.09 M49.91 18.21 C53.58 13.97, 57.26 9.74, 65.65 0.09 M54.89 18.57 C60.95 11.59, 67.02 4.62, 70.64 0.45 M54.89 18.57 C59.61 13.14, 64.33 7.71, 70.64 0.45 M60.54 18.17 C66.21 11.64, 71.89 5.11, 76.28 0.06 M60.54 18.17 C66.33 11.5, 72.13 4.83, 76.28 0.06 M65.52 18.53 C69.45 14.01, 73.38 9.49, 81.27 0.42 M65.52 18.53 C70.41 12.91, 75.29 7.29, 81.27 0.42 M71.17 18.14 C76.37 12.16, 81.57 6.17, 86.91 0.02 M71.17 18.14 C74.63 14.15, 78.1 10.16, 86.91 0.02 M76.15 18.5 C80.09 13.97, 84.02 9.44, 91.9 0.38 M76.15 18.5 C81.78 12.03, 87.4 5.56, 91.9 0.38 M81.8 18.1 C85.46 13.88, 89.13 9.66, 97.54 -0.01 M81.8 18.1 C87.87 11.12, 93.94 4.14, 97.54 -0.01 M86.78 18.46 C92.94 11.38, 99.1 4.29, 102.53 0.35 M86.78 18.46 C91.75 12.75, 96.72 7.03, 102.53 0.35 M92.43 18.07 C97.44 12.3, 102.45 6.53, 107.51 0.71 M92.43 18.07 C97.61 12.1, 102.8 6.13, 107.51 0.71 M97.41 18.43 C101.13 14.15, 104.86 9.87, 111.19 2.58 M97.41 18.43 C102.84 12.19, 108.26 5.95, 111.19 2.58 M103.06 18.03 C105.2 15.57, 107.35 13.1, 112.24 7.47 M103.06 18.03 C106.33 14.26, 109.61 10.49, 112.24 7.47 M108.04 18.39 C109.52 16.69, 111 14.99, 111.98 13.87 M108.04 18.39 C108.96 17.34, 109.87 16.29, 111.98 13.87 M1.08 17.05 C1.08 17.05, 1.08 17.05, 1.08 17.05 M1.08 17.05 C1.08 17.05, 1.08 17.05, 1.08 17.05 M8.23 17.97 C4.99 15.15, 1.76 12.34, -0.07 10.75 M8.23 17.97 C6.52 16.48, 4.81 15, -0.07 10.75 M13.87 17.57 C8.78 13.14, 3.68 8.71, 0.29 5.76 M13.87 17.57 C9.67 13.92, 5.46 10.26, 0.29 5.76 M20.27 17.83 C14.88 13.15, 9.49 8.46, 1.4 1.43 M20.27 17.83 C14.23 12.58, 8.19 7.33, 1.4 1.43 M26.67 18.1 C21.47 13.57, 16.26 9.05, 4.78 -0.93 M26.67 18.1 C18.18 10.72, 9.7 3.34, 4.78 -0.93 M32.31 17.7 C27.48 13.5, 22.65 9.3, 11.18 -0.67 M32.31 17.7 C25.66 11.92, 19.01 6.14, 11.18 -0.67 M38.71 17.96 C31.39 11.6, 24.08 5.24, 17.58 -0.41 M38.71 17.96 C30.33 10.67, 21.94 3.39, 17.58 -0.41 M44.35 17.57 C38.5 12.48, 32.64 7.39, 23.22 -0.8 M44.35 17.57 C36.7 10.92, 29.05 4.27, 23.22 -0.8 M50.75 17.83 C44.05 12, 37.34 6.17, 29.62 -0.54 M50.75 17.83 C46.25 13.92, 41.75 10, 29.62 -0.54 M57.15 18.09 C51 12.75, 44.86 7.41, 35.26 -0.93 M57.15 18.09 C49.12 11.11, 41.09 4.13, 35.26 -0.93 M62.79 17.7 C56.25 12.01, 49.71 6.32, 41.66 -0.67 M62.79 17.7 C56.55 12.27, 50.3 6.84, 41.66 -0.67 M69.19 17.96 C61.11 10.94, 53.04 3.92, 48.06 -0.41 M69.19 17.96 C63.55 13.05, 57.91 8.15, 48.06 -0.41 M74.83 17.56 C67.99 11.61, 61.15 5.66, 53.7 -0.81 M74.83 17.56 C66.68 10.48, 58.53 3.39, 53.7 -0.81 M81.23 17.82 C74.56 12.03, 67.9 6.23, 60.1 -0.54 M81.23 17.82 C74.19 11.7, 67.15 5.58, 60.1 -0.54 M87.63 18.09 C80.99 12.32, 74.35 6.55, 65.74 -0.94 M87.63 18.09 C83.07 14.12, 78.51 10.16, 65.74 -0.94 M93.27 17.69 C86.77 12.04, 80.27 6.39, 72.14 -0.68 M93.27 17.69 C87.59 12.75, 81.91 7.82, 72.14 -0.68 M99.67 17.95 C94.75 13.67, 89.82 9.39, 78.54 -0.42 M99.67 17.95 C91.83 11.14, 84 4.33, 78.54 -0.42 M105.31 17.56 C97.34 10.63, 89.37 3.7, 84.18 -0.81 M105.31 17.56 C98.76 11.86, 92.2 6.16, 84.18 -0.81 M110.96 17.16 C106.05 12.9, 101.15 8.64, 90.58 -0.55 M110.96 17.16 C105.6 12.5, 100.23 7.84, 90.58 -0.55 M112.07 12.83 C108.34 9.59, 104.61 6.35, 96.22 -0.94 M112.07 12.83 C106.9 8.34, 101.73 3.84, 96.22 -0.94 M112.43 7.85 C109.53 5.33, 106.63 2.81, 102.62 -0.68 M112.43 7.85 C108.92 4.79, 105.4 1.74, 102.62 -0.68" stroke="#ff8787" stroke-width="0.5" fill="none"></path><path d="M4.56 0 C40.96 0, 77.37 0, 107.25 0 M4.56 0 C36.24 0, 67.92 0, 107.25 0 M107.25 0 C110.29 0, 111.81 1.52, 111.81 4.56 M107.25 0 C110.29 0, 111.81 1.52, 111.81 4.56 M111.81 4.56 C111.81 6.47, 111.81 8.38, 111.81 13.68 M111.81 4.56 C111.81 8.05, 111.81 11.55, 111.81 13.68 M111.81 13.68 C111.81 16.72, 110.29 18.24, 107.25 18.24 M111.81 13.68 C111.81 16.72, 110.29 18.24, 107.25 18.24 M107.25 18.24 C85.13 18.24, 63.02 18.24, 4.56 18.24 M107.25 18.24 C83.95 18.24, 60.65 18.24, 4.56 18.24 M4.56 18.24 C1.52 18.24, 0 16.72, 0 13.68 M4.56 18.24 C1.52 18.24, 0 16.72, 0 13.68 M0 13.68 C0 11.08, 0 8.48, 0 4.56 M0 13.68 C0 10.81, 0 7.94, 0 4.56 M0 4.56 C0 1.52, 1.52 0, 4.56 0 M0 4.56 C0 1.52, 1.52 0, 4.56 0" stroke="transparent" stroke-width="1" fill="none"></path></g><g stroke-opacity="0.5" fill-opacity="0.5" stroke-linecap="round" transform="translate(29.478427175426873 76.00243664990012) rotate(0 77.66402398534092 9.065182601828838)"><path d="M1.21 1.05 C1.21 1.05, 1.21 1.05, 1.21 1.05 M1.21 1.05 C1.21 1.05, 1.21 1.05, 1.21 1.05 M0.95 7.45 C2.51 5.65, 4.07 3.85, 7.51 -0.1 M0.95 7.45 C2.97 5.12, 5 2.79, 7.51 -0.1 M0.68 13.84 C4.77 9.15, 8.85 4.45, 12.49 0.26 M0.68 13.84 C3.65 10.43, 6.63 7.01, 12.49 0.26 M2.39 17.98 C6.04 13.78, 9.7 9.57, 18.14 -0.14 M2.39 17.98 C5.62 14.27, 8.84 10.56, 18.14 -0.14 M7.38 18.34 C10.89 14.29, 14.41 10.25, 23.12 0.23 M7.38 18.34 C11.67 13.39, 15.97 8.45, 23.12 0.23 M13.02 17.94 C18.9 11.17, 24.79 4.41, 28.77 -0.17 M13.02 17.94 C16.41 14.04, 19.81 10.13, 28.77 -0.17 M18.01 18.3 C23.91 11.52, 29.81 4.73, 33.75 0.19 M18.01 18.3 C24.12 11.27, 30.23 4.24, 33.75 0.19 M22.99 18.66 C28.97 11.8, 34.94 4.93, 39.4 -0.2 M22.99 18.66 C29.27 11.45, 35.54 4.23, 39.4 -0.2 M28.64 18.27 C32.34 14.01, 36.04 9.76, 44.38 0.16 M28.64 18.27 C34.43 11.61, 40.22 4.95, 44.38 0.16 M33.62 18.63 C37.66 13.99, 41.7 9.35, 50.03 -0.24 M33.62 18.63 C39.04 12.4, 44.46 6.16, 50.03 -0.24 M39.27 18.23 C44.47 12.25, 49.67 6.27, 55.01 0.12 M39.27 18.23 C42.66 14.33, 46.05 10.43, 55.01 0.12 M44.25 18.59 C49.06 13.07, 53.86 7.55, 60 0.48 M44.25 18.59 C50.02 11.96, 55.79 5.32, 60 0.48 M49.9 18.2 C55.88 11.32, 61.86 4.44, 65.64 0.09 M49.9 18.2 C54.1 13.36, 58.31 8.53, 65.64 0.09 M54.88 18.56 C60.68 11.89, 66.48 5.22, 70.63 0.45 M54.88 18.56 C60.88 11.66, 66.87 4.77, 70.63 0.45 M60.53 18.17 C66.74 11.02, 72.95 3.87, 76.27 0.05 M60.53 18.17 C65.12 12.88, 69.72 7.59, 76.27 0.05 M65.51 18.53 C70.32 13, 75.13 7.47, 81.26 0.41 M65.51 18.53 C70.97 12.25, 76.42 5.98, 81.26 0.41 M71.16 18.13 C77.1 11.3, 83.04 4.46, 86.9 0.02 M71.16 18.13 C77.33 11.03, 83.5 3.93, 86.9 0.02 M76.14 18.49 C81.31 12.55, 86.48 6.61, 91.89 0.38 M76.14 18.49 C79.59 14.52, 83.04 10.55, 91.89 0.38 M81.79 18.1 C85.31 14.04, 88.84 9.98, 97.53 -0.02 M81.79 18.1 C86.54 12.63, 91.29 7.17, 97.53 -0.02 M86.77 18.46 C91.35 13.19, 95.93 7.93, 102.52 0.34 M86.77 18.46 C90.52 14.15, 94.26 9.85, 102.52 0.34 M92.42 18.06 C95.91 14.05, 99.4 10.03, 108.16 -0.05 M92.42 18.06 C96.97 12.83, 101.51 7.6, 108.16 -0.05 M97.41 18.42 C103.53 11.38, 109.65 4.33, 113.15 0.31 M97.41 18.42 C100.92 14.38, 104.43 10.34, 113.15 0.31 M103.05 18.03 C108.57 11.68, 114.09 5.33, 118.79 -0.09 M103.05 18.03 C107.04 13.44, 111.03 8.84, 118.79 -0.09 M108.04 18.39 C112.15 13.65, 116.27 8.91, 123.78 0.27 M108.04 18.39 C112.44 13.32, 116.85 8.25, 123.78 0.27 M113.68 17.99 C119.7 11.07, 125.72 4.14, 129.42 -0.12 M113.68 17.99 C117.28 13.85, 120.89 9.7, 129.42 -0.12 M118.67 18.35 C123.21 13.12, 127.76 7.89, 134.41 0.24 M118.67 18.35 C123.31 13.01, 127.96 7.66, 134.41 0.24 M124.31 17.96 C130.31 11.05, 136.31 4.15, 140.05 -0.15 M124.31 17.96 C128.74 12.87, 133.16 7.77, 140.05 -0.15 M129.3 18.32 C133.92 13, 138.54 7.68, 145.04 0.21 M129.3 18.32 C133.05 14, 136.81 9.68, 145.04 0.21 M134.28 18.68 C137.62 14.84, 140.96 11, 150.68 -0.19 M134.28 18.68 C137.71 14.74, 141.13 10.8, 150.68 -0.19 M139.93 18.28 C143.4 14.28, 146.88 10.28, 154.36 1.68 M139.93 18.28 C143.72 13.92, 147.51 9.55, 154.36 1.68 M144.91 18.64 C149.35 13.54, 153.79 8.44, 156.07 5.81 M144.91 18.64 C147.63 15.52, 150.34 12.4, 156.07 5.81 M150.56 18.25 C152.33 16.21, 154.1 14.17, 155.8 12.21 M150.56 18.25 C151.62 17.02, 152.69 15.79, 155.8 12.21 M1.13 16.99 C1.13 16.99, 1.13 16.99, 1.13 16.99 M1.13 16.99 C1.13 16.99, 1.13 16.99, 1.13 16.99 M8.28 17.91 C5.52 15.51, 2.75 13.1, -0.02 10.69 M8.28 17.91 C5.97 15.9, 3.65 13.89, -0.02 10.69 M13.92 17.52 C9.07 13.3, 4.22 9.08, 0.34 5.71 M13.92 17.52 C9.52 13.69, 5.12 9.87, 0.34 5.71 M20.32 17.78 C16.19 14.19, 12.06 10.6, 1.45 1.38 M20.32 17.78 C12.97 11.38, 5.61 4.99, 1.45 1.38 M25.96 17.38 C17.94 10.4, 9.91 3.42, 4.83 -0.99 M25.96 17.38 C19.69 11.93, 13.41 6.47, 4.83 -0.99 M32.36 17.64 C25.42 11.61, 18.47 5.57, 11.23 -0.73 M32.36 17.64 C27.7 13.59, 23.04 9.54, 11.23 -0.73 M38.76 17.91 C32.62 12.56, 26.47 7.22, 17.63 -0.46 M38.76 17.91 C33.87 13.65, 28.97 9.4, 17.63 -0.46 M44.4 17.51 C39.37 13.14, 34.34 8.76, 23.27 -0.86 M44.4 17.51 C37.27 11.31, 30.14 5.11, 23.27 -0.86 M50.8 17.77 C42.37 10.45, 33.94 3.12, 29.67 -0.6 M50.8 17.77 C46.09 13.67, 41.37 9.57, 29.67 -0.6 M56.44 17.38 C50.83 12.5, 45.22 7.62, 35.31 -0.99 M56.44 17.38 C50.3 12.04, 44.17 6.7, 35.31 -0.99 M62.84 17.64 C56.38 12.02, 49.92 6.4, 41.71 -0.73 M62.84 17.64 C58.61 13.96, 54.38 10.28, 41.71 -0.73 M69.24 17.9 C61.4 11.09, 53.56 4.27, 48.11 -0.47 M69.24 17.9 C62.65 12.17, 56.07 6.45, 48.11 -0.47 M74.88 17.51 C70.54 13.73, 66.19 9.95, 53.75 -0.86 M74.88 17.51 C70.15 13.39, 65.42 9.28, 53.75 -0.86 M81.28 17.77 C75.85 13.05, 70.42 8.33, 60.15 -0.6 M81.28 17.77 C76.71 13.79, 72.14 9.82, 60.15 -0.6 M86.92 17.37 C78.81 10.32, 70.69 3.26, 65.79 -1 M86.92 17.37 C78.71 10.23, 70.5 3.1, 65.79 -1 M93.32 17.63 C87.66 12.71, 82 7.79, 72.19 -0.74 M93.32 17.63 C86.93 12.08, 80.55 6.53, 72.19 -0.74 M99.72 17.9 C92.96 12.02, 86.21 6.15, 78.59 -0.47 M99.72 17.9 C92.94 12, 86.16 6.11, 78.59 -0.47 M105.36 17.5 C99.22 12.16, 93.07 6.82, 84.23 -0.87 M105.36 17.5 C100.07 12.9, 94.78 8.3, 84.23 -0.87 M111.76 17.76 C103.68 10.74, 95.59 3.71, 90.63 -0.61 M111.76 17.76 C105.83 12.61, 99.9 7.46, 90.63 -0.61 M117.4 17.37 C112.02 12.69, 106.64 8.01, 96.27 -1 M117.4 17.37 C112.66 13.25, 107.92 9.12, 96.27 -1 M123.8 17.63 C116.72 11.47, 109.63 5.31, 102.67 -0.74 M123.8 17.63 C118.31 12.85, 112.81 8.08, 102.67 -0.74 M130.2 17.89 C125.33 13.66, 120.46 9.43, 109.07 -0.48 M130.2 17.89 C122.37 11.09, 114.54 4.28, 109.07 -0.48 M135.84 17.5 C130.92 13.22, 126.01 8.95, 114.71 -0.87 M135.84 17.5 C129.83 12.27, 123.81 7.04, 114.71 -0.87 M142.24 17.76 C135.23 11.67, 128.23 5.58, 121.11 -0.61 M142.24 17.76 C135.52 11.92, 128.8 6.07, 121.11 -0.61 M147.88 17.36 C141.08 11.45, 134.28 5.54, 126.75 -1.01 M147.88 17.36 C141.27 11.62, 134.66 5.87, 126.75 -1.01 M153.53 16.97 C149.17 13.18, 144.82 9.4, 133.15 -0.74 M153.53 16.97 C147.84 12.03, 142.16 7.09, 133.15 -0.74 M155.4 13.29 C149.98 8.59, 144.57 3.88, 139.55 -0.48 M155.4 13.29 C150.09 8.68, 144.78 4.06, 139.55 -0.48 M155 7.65 C151.33 4.46, 147.65 1.26, 145.19 -0.88 M155 7.65 C151.58 4.68, 148.17 1.71, 145.19 -0.88 M155.36 2.66 C154.52 1.93, 153.67 1.2, 151.59 -0.62 M155.36 2.66 C154.32 1.76, 153.28 0.86, 151.59 -0.62" stroke="#ff8787" stroke-width="0.5" fill="none"></path><path d="M4.53 0 C57.94 0, 111.35 0, 150.8 0 M4.53 0 C60.83 0, 117.13 0, 150.8 0 M150.8 0 C153.82 0, 155.33 1.51, 155.33 4.53 M150.8 0 C153.82 0, 155.33 1.51, 155.33 4.53 M155.33 4.53 C155.33 7.31, 155.33 10.09, 155.33 13.6 M155.33 4.53 C155.33 7.7, 155.33 10.86, 155.33 13.6 M155.33 13.6 C155.33 16.62, 153.82 18.13, 150.8 18.13 M155.33 13.6 C155.33 16.62, 153.82 18.13, 150.8 18.13 M150.8 18.13 C120.93 18.13, 91.06 18.13, 4.53 18.13 M150.8 18.13 C101.5 18.13, 52.2 18.13, 4.53 18.13 M4.53 18.13 C1.51 18.13, 0 16.62, 0 13.6 M4.53 18.13 C1.51 18.13, 0 16.62, 0 13.6 M0 13.6 C0 10.35, 0 7.09, 0 4.53 M0 13.6 C0 11.4, 0 9.21, 0 4.53 M0 4.53 C0 1.51, 1.51 0, 4.53 0 M0 4.53 C0 1.51, 1.51 0, 4.53 0" stroke="transparent" stroke-width="1" fill="none"></path></g><g stroke-opacity="0.5" fill-opacity="0.5" stroke-linecap="round" transform="translate(32.253874987292534 75.4000452093087) rotate(0 77.32239930929916 9.041935952275708)"><path d="M1.2 1.05 C1.2 1.05, 1.2 1.05, 1.2 1.05 M1.2 1.05 C1.2 1.05, 1.2 1.05, 1.2 1.05 M0.94 7.44 C2.96 5.13, 4.97 2.81, 7.5 -0.1 M0.94 7.44 C3.26 4.77, 5.59 2.1, 7.5 -0.1 M0.68 13.84 C4.48 9.47, 8.28 5.1, 12.49 0.26 M0.68 13.84 C4.02 10, 7.37 6.15, 12.49 0.26 M2.39 17.98 C7.62 11.95, 12.86 5.93, 18.13 -0.14 M2.39 17.98 C7.57 12.01, 12.76 6.04, 18.13 -0.14 M7.37 18.34 C11.29 13.83, 15.21 9.32, 23.12 0.22 M7.37 18.34 C12.53 12.41, 17.68 6.48, 23.12 0.22 M13.02 17.94 C17.58 12.69, 22.14 7.45, 28.76 -0.17 M13.02 17.94 C16.89 13.49, 20.76 9.04, 28.76 -0.17 M18 18.3 C21.5 14.28, 24.99 10.26, 33.75 0.19 M18 18.3 C22.67 12.94, 27.33 7.57, 33.75 0.19 M22.99 18.66 C27.95 12.95, 32.91 7.25, 39.39 -0.21 M22.99 18.66 C28.62 12.19, 34.25 5.71, 39.39 -0.21 M28.63 18.27 C33.65 12.5, 38.66 6.73, 44.38 0.15 M28.63 18.27 C31.99 14.41, 35.35 10.54, 44.38 0.15 M33.62 18.63 C38.99 12.45, 44.36 6.27, 50.02 -0.24 M33.62 18.63 C38.61 12.89, 43.59 7.16, 50.02 -0.24 M39.26 18.23 C43.97 12.82, 48.67 7.41, 55.01 0.12 M39.26 18.23 C43.89 12.91, 48.52 7.58, 55.01 0.12 M44.25 18.59 C48.25 14, 52.24 9.4, 60 0.48 M44.25 18.59 C49.79 12.22, 55.34 5.84, 60 0.48 M49.89 18.2 C54.72 12.65, 59.54 7.1, 65.64 0.08 M49.89 18.2 C53.77 13.74, 57.65 9.27, 65.64 0.08 M54.88 18.56 C58.09 14.87, 61.3 11.18, 70.63 0.44 M54.88 18.56 C60.46 12.14, 66.03 5.73, 70.63 0.44 M60.52 18.16 C66.3 11.51, 72.09 4.86, 76.27 0.05 M60.52 18.16 C66.36 11.45, 72.19 4.74, 76.27 0.05 M65.51 18.52 C69.17 14.32, 72.83 10.11, 81.26 0.41 M65.51 18.52 C70.53 12.75, 75.55 6.98, 81.26 0.41 M71.15 18.13 C75.72 12.87, 80.29 7.62, 86.9 0.02 M71.15 18.13 C75.23 13.44, 79.3 8.76, 86.9 0.02 M76.14 18.49 C79.72 14.37, 83.3 10.25, 91.89 0.38 M76.14 18.49 C80.82 13.11, 85.49 7.73, 91.89 0.38 M81.78 18.09 C87.57 11.44, 93.35 4.79, 97.53 -0.02 M81.78 18.09 C86.44 12.74, 91.09 7.39, 97.53 -0.02 M86.77 18.45 C90.07 14.66, 93.37 10.86, 102.52 0.34 M86.77 18.45 C91.21 13.35, 95.64 8.25, 102.52 0.34 M92.41 18.06 C96.71 13.12, 101 8.18, 108.16 -0.05 M92.41 18.06 C98.04 11.59, 103.66 5.12, 108.16 -0.05 M97.4 18.42 C101.06 14.21, 104.72 10, 113.15 0.31 M97.4 18.42 C102.25 12.84, 107.1 7.26, 113.15 0.31 M103.05 18.02 C108.78 11.43, 114.51 4.84, 118.79 -0.09 M103.05 18.02 C107.97 12.36, 112.9 6.69, 118.79 -0.09 M108.03 18.39 C112.47 13.28, 116.92 8.17, 123.78 0.27 M108.03 18.39 C113.6 11.98, 119.17 5.58, 123.78 0.27 M113.68 17.99 C119.68 11.08, 125.69 4.17, 129.42 -0.12 M113.68 17.99 C118.77 12.13, 123.86 6.27, 129.42 -0.12 M118.66 18.35 C124.61 11.51, 130.55 4.67, 134.41 0.24 M118.66 18.35 C122.41 14.04, 126.15 9.73, 134.41 0.24 M124.31 17.96 C129.78 11.66, 135.25 5.36, 140.05 -0.16 M124.31 17.96 C129.69 11.76, 135.08 5.56, 140.05 -0.16 M129.29 18.32 C133.56 13.41, 137.82 8.51, 145.04 0.2 M129.29 18.32 C134.37 12.47, 139.46 6.62, 145.04 0.2 M134.94 17.92 C138.99 13.26, 143.04 8.59, 150.02 0.56 M134.94 17.92 C138.17 14.2, 141.41 10.47, 150.02 0.56 M139.92 18.28 C144.92 12.53, 149.92 6.78, 154.36 1.68 M139.92 18.28 C142.98 14.76, 146.05 11.24, 154.36 1.68 M144.91 18.64 C147.2 16, 149.5 13.36, 154.75 7.32 M144.91 18.64 C148.63 14.36, 152.35 10.08, 154.75 7.32 M150.55 18.25 C152.03 16.55, 153.51 14.84, 155.14 12.96 M150.55 18.25 C151.71 16.91, 152.87 15.58, 155.14 12.96 M1.15 16.97 C1.15 16.97, 1.15 16.97, 1.15 16.97 M1.15 16.97 C1.15 16.97, 1.15 16.97, 1.15 16.97 M8.3 17.89 C5.41 15.38, 2.52 12.86, 0 10.67 M8.3 17.89 C6.38 16.22, 4.46 14.55, 0 10.67 M13.94 17.49 C10.41 14.42, 6.87 11.34, 0.36 5.68 M13.94 17.49 C10.01 14.08, 6.09 10.66, 0.36 5.68 M20.34 17.75 C14.54 12.71, 8.74 7.67, 1.47 1.35 M20.34 17.75 C15.06 13.16, 9.77 8.56, 1.47 1.35 M25.99 17.36 C21.45 13.42, 16.92 9.48, 4.85 -1.01 M25.99 17.36 C18.1 10.5, 10.21 3.65, 4.85 -1.01 M32.38 17.62 C25.71 11.82, 19.03 6.01, 11.25 -0.75 M32.38 17.62 C24.54 10.8, 16.69 3.98, 11.25 -0.75 M38.78 17.88 C30.44 10.63, 22.1 3.39, 17.65 -0.49 M38.78 17.88 C34.12 13.83, 29.46 9.78, 17.65 -0.49 M44.42 17.49 C39.72 13.4, 35.01 9.3, 23.29 -0.88 M44.42 17.49 C39.78 13.45, 35.14 9.42, 23.29 -0.88 M50.82 17.75 C46.53 14.02, 42.24 10.29, 29.69 -0.62 M50.82 17.75 C43.86 11.7, 36.9 5.64, 29.69 -0.62 M56.46 17.35 C49.93 11.68, 43.4 6, 35.33 -1.02 M56.46 17.35 C48.39 10.33, 40.31 3.31, 35.33 -1.02 M62.86 17.62 C55.98 11.63, 49.1 5.65, 41.73 -0.75 M62.86 17.62 C54.6 10.43, 46.34 3.25, 41.73 -0.75 M69.26 17.88 C61.03 10.72, 52.79 3.56, 48.13 -0.49 M69.26 17.88 C61.68 11.29, 54.11 4.7, 48.13 -0.49 M74.9 17.48 C70.03 13.25, 65.16 9.01, 53.77 -0.89 M74.9 17.48 C66.71 10.36, 58.51 3.24, 53.77 -0.89 M81.3 17.74 C74.72 12.03, 68.14 6.31, 60.17 -0.63 M81.3 17.74 C75.17 12.42, 69.04 7.09, 60.17 -0.63 M86.94 17.35 C81.26 12.41, 75.59 7.48, 65.81 -1.02 M86.94 17.35 C80.71 11.93, 74.47 6.51, 65.81 -1.02 M93.34 17.61 C87.97 12.94, 82.6 8.27, 72.21 -0.76 M93.34 17.61 C87.84 12.83, 82.34 8.05, 72.21 -0.76 M99.74 17.87 C91.83 11, 83.92 4.12, 78.61 -0.5 M99.74 17.87 C91.71 10.89, 83.68 3.91, 78.61 -0.5 M105.38 17.48 C100.5 13.23, 95.61 8.98, 84.25 -0.89 M105.38 17.48 C97.03 10.22, 88.68 2.96, 84.25 -0.89 M111.78 17.74 C104.09 11.06, 96.4 4.37, 90.65 -0.63 M111.78 17.74 C105.4 12.19, 99.01 6.64, 90.65 -0.63 M117.42 17.34 C109.23 10.22, 101.03 3.09, 96.29 -1.02 M117.42 17.34 C109.76 10.68, 102.1 4.02, 96.29 -1.02 M123.82 17.61 C118.81 13.25, 113.81 8.9, 102.69 -0.76 M123.82 17.61 C119.32 13.69, 114.82 9.78, 102.69 -0.76 M130.22 17.87 C123.82 12.31, 117.42 6.75, 109.09 -0.5 M130.22 17.87 C124.45 12.85, 118.68 7.83, 109.09 -0.5 M135.86 17.47 C130.03 12.4, 124.2 7.33, 114.73 -0.9 M135.86 17.47 C130.44 12.76, 125.03 8.05, 114.73 -0.9 M142.26 17.73 C136.2 12.46, 130.13 7.19, 121.13 -0.63 M142.26 17.73 C134.25 10.77, 126.25 3.81, 121.13 -0.63 M147.9 17.34 C140.59 10.98, 133.28 4.63, 126.77 -1.03 M147.9 17.34 C142.23 12.41, 136.56 7.48, 126.77 -1.03 M153.55 16.95 C147.75 11.9, 141.95 6.86, 133.17 -0.77 M153.55 16.95 C145.91 10.31, 138.28 3.67, 133.17 -0.77 M155.42 13.27 C149.15 7.83, 142.89 2.38, 139.57 -0.51 M155.42 13.27 C151.02 9.45, 146.62 5.63, 139.57 -0.51 M155.02 7.63 C151.37 4.45, 147.71 1.27, 145.21 -0.9 M155.02 7.63 C152.11 5.09, 149.19 2.56, 145.21 -0.9" stroke="#4dabf7" stroke-width="0.5" fill="none"></path><path d="M4.52 0 C39.49 0, 74.46 0, 150.12 0 M4.52 0 C56.96 0, 109.4 0, 150.12 0 M150.12 0 C153.14 0, 154.64 1.51, 154.64 4.52 M150.12 0 C153.14 0, 154.64 1.51, 154.64 4.52 M154.64 4.52 C154.64 8.06, 154.64 11.59, 154.64 13.56 M154.64 4.52 C154.64 6.37, 154.64 8.22, 154.64 13.56 M154.64 13.56 C154.64 16.58, 153.14 18.08, 150.12 18.08 M154.64 13.56 C154.64 16.58, 153.14 18.08, 150.12 18.08 M150.12 18.08 C104.69 18.08, 59.25 18.08, 4.52 18.08 M150.12 18.08 C107.34 18.08, 64.56 18.08, 4.52 18.08 M4.52 18.08 C1.51 18.08, 0 16.58, 0 13.56 M4.52 18.08 C1.51 18.08, 0 16.58, 0 13.56 M0 13.56 C0 11.39, 0 9.21, 0 4.52 M0 13.56 C0 11.75, 0 9.94, 0 4.52 M0 4.52 C0 1.51, 1.51 0, 4.52 0 M0 4.52 C0 1.51, 1.51 0, 4.52 0" stroke="transparent" stroke-width="1" fill="none"></path></g><g stroke-opacity="0.5" fill-opacity="0.5" stroke-linecap="round" transform="translate(31.237086750316166 47.31202820575891) rotate(0 42.86075743261796 9.442182614146986)"><path d="M1.26 1.09 C1.26 1.09, 1.26 1.09, 1.26 1.09 M1.26 1.09 C1.26 1.09, 1.26 1.09, 1.26 1.09 M0.34 8.24 C2.89 5.32, 5.43 2.39, 7.56 -0.06 M0.34 8.24 C2.47 5.8, 4.59 3.35, 7.56 -0.06 M0.73 13.89 C4.04 10.09, 7.34 6.29, 12.54 0.3 M0.73 13.89 C4.27 9.82, 7.8 5.76, 12.54 0.3 M2.44 18.02 C6.53 13.31, 10.63 8.6, 18.19 -0.09 M2.44 18.02 C6 13.92, 9.57 9.82, 18.19 -0.09 M6.77 19.14 C12.86 12.13, 18.96 5.12, 23.17 0.27 M6.77 19.14 C10.96 14.32, 15.15 9.5, 23.17 0.27 M12.41 18.74 C18.57 11.66, 24.73 4.57, 28.82 -0.13 M12.41 18.74 C17.73 12.62, 23.05 6.51, 28.82 -0.13 M17.4 19.1 C23.26 12.36, 29.12 5.62, 33.8 0.23 M17.4 19.1 C21.33 14.59, 25.25 10.07, 33.8 0.23 M23.04 18.71 C27.42 13.68, 31.79 8.65, 39.45 -0.16 M23.04 18.71 C27.71 13.34, 32.38 7.97, 39.45 -0.16 M28.03 19.07 C33.91 12.3, 39.79 5.54, 44.43 0.2 M28.03 19.07 C33.46 12.82, 38.89 6.58, 44.43 0.2 M33.67 18.67 C38.93 12.63, 44.19 6.58, 49.42 0.56 M33.67 18.67 C37.54 14.22, 41.41 9.77, 49.42 0.56 M38.66 19.03 C44.89 11.87, 51.12 4.71, 55.06 0.17 M38.66 19.03 C41.97 15.22, 45.29 11.41, 55.06 0.17 M43.65 19.39 C48.74 13.54, 53.83 7.68, 60.05 0.53 M43.65 19.39 C48.37 13.96, 53.1 8.52, 60.05 0.53 M49.29 19 C52.7 15.08, 56.1 11.17, 65.69 0.13 M49.29 19 C52.85 14.91, 56.4 10.82, 65.69 0.13 M54.28 19.36 C60.21 12.53, 66.15 5.71, 70.68 0.49 M54.28 19.36 C59.77 13.05, 65.25 6.74, 70.68 0.49 M59.92 18.96 C65.04 13.07, 70.16 7.19, 76.32 0.1 M59.92 18.96 C65.36 12.71, 70.79 6.46, 76.32 0.1 M64.91 19.32 C71.26 12.02, 77.61 4.71, 81.31 0.46 M64.91 19.32 C69.01 14.61, 73.11 9.89, 81.31 0.46 M70.55 18.93 C75.55 13.18, 80.54 7.44, 84.99 2.33 M70.55 18.93 C76.25 12.38, 81.94 5.83, 84.99 2.33 M75.54 19.29 C78.88 15.45, 82.22 11.61, 86.04 7.21 M75.54 19.29 C79.12 15.17, 82.71 11.04, 86.04 7.21 M81.18 18.89 C82.31 17.6, 83.43 16.31, 85.77 13.61 M81.18 18.89 C82.32 17.59, 83.45 16.29, 85.77 13.61 M2.5 18.46 C2.5 18.46, 2.5 18.46, 2.5 18.46 M2.5 18.46 C2.5 18.46, 2.5 18.46, 2.5 18.46 M8.9 18.72 C6.19 16.36, 3.48 14.01, 0.6 11.5 M8.9 18.72 C7.06 17.12, 5.23 15.52, 0.6 11.5 M14.55 18.33 C9 13.51, 3.46 8.69, 0.21 5.86 M14.55 18.33 C10.36 14.69, 6.17 11.05, 0.21 5.86 M20.94 18.59 C13.25 11.9, 5.55 5.21, 1.32 1.53 M20.94 18.59 C16.17 14.44, 11.4 10.29, 1.32 1.53 M27.34 18.85 C21.84 14.07, 16.35 9.29, 5.45 -0.18 M27.34 18.85 C21.3 13.6, 15.26 8.34, 5.45 -0.18 M32.98 18.45 C28.03 14.15, 23.08 9.85, 11.1 -0.57 M32.98 18.45 C25.78 12.19, 18.58 5.93, 11.1 -0.57 M39.38 18.71 C33.35 13.47, 27.31 8.22, 17.5 -0.31 M39.38 18.71 C33.11 13.26, 26.84 7.81, 17.5 -0.31 M45.78 18.98 C39.1 13.17, 32.42 7.37, 23.14 -0.71 M45.78 18.98 C39.24 13.29, 32.7 7.6, 23.14 -0.71 M51.42 18.58 C45.82 13.71, 40.23 8.85, 29.54 -0.44 M51.42 18.58 C43.95 12.08, 36.47 5.59, 29.54 -0.44 M57.82 18.84 C52.39 14.12, 46.96 9.4, 35.93 -0.18 M57.82 18.84 C52.91 14.58, 48 10.31, 35.93 -0.18 M64.22 19.1 C59.24 14.78, 54.27 10.45, 41.58 -0.58 M64.22 19.1 C57.4 13.18, 50.58 7.25, 41.58 -0.58 M69.86 18.71 C65.09 14.57, 60.33 10.42, 47.97 -0.32 M69.86 18.71 C64.85 14.35, 59.84 10, 47.97 -0.32 M76.26 18.97 C69.06 12.71, 61.86 6.46, 54.37 -0.05 M76.26 18.97 C68.21 11.98, 60.16 4.98, 54.37 -0.05 M81.9 18.58 C74.91 12.5, 67.92 6.42, 60.02 -0.45 M81.9 18.58 C75.58 13.08, 69.25 7.58, 60.02 -0.45 M85.28 16.21 C78.16 10.03, 71.05 3.84, 66.41 -0.19 M85.28 16.21 C78 9.88, 70.72 3.55, 66.41 -0.19 M86.4 11.88 C81.63 7.74, 76.86 3.59, 72.81 0.07 M86.4 11.88 C81.2 7.37, 76 2.85, 72.81 0.07 M86 6.24 C83.8 4.33, 81.6 2.41, 78.45 -0.32 M86 6.24 C83.42 3.99, 80.83 1.74, 78.45 -0.32" stroke="#ff8787" stroke-width="0.5" fill="none"></path><path d="M4.72 0 C25.88 0, 47.03 0, 81 0 M4.72 0 C31.13 0, 57.54 0, 81 0 M81 0 C84.15 0, 85.72 1.57, 85.72 4.72 M81 0 C84.15 0, 85.72 1.57, 85.72 4.72 M85.72 4.72 C85.72 7.32, 85.72 9.92, 85.72 14.16 M85.72 4.72 C85.72 8.21, 85.72 11.7, 85.72 14.16 M85.72 14.16 C85.72 17.31, 84.15 18.88, 81 18.88 M85.72 14.16 C85.72 17.31, 84.15 18.88, 81 18.88 M81 18.88 C50.51 18.88, 20.03 18.88, 4.72 18.88 M81 18.88 C64.95 18.88, 48.89 18.88, 4.72 18.88 M4.72 18.88 C1.57 18.88, 0 17.31, 0 14.16 M4.72 18.88 C1.57 18.88, 0 17.31, 0 14.16 M0 14.16 C0 12.25, 0 10.33, 0 4.72 M0 14.16 C0 11.44, 0 8.72, 0 4.72 M0 4.72 C0 1.57, 1.57 0, 4.72 0 M0 4.72 C0 1.57, 1.57 0, 4.72 0" stroke="transparent" stroke-width="1" fill="none"></path></g><g stroke-opacity="0.5" fill-opacity="0.5" stroke-linecap="round" transform="translate(34.479489001031766 47.32213544469596) rotate(0 42.86075743261796 9.442182614146986)"><path d="M1.26 1.09 C1.26 1.09, 1.26 1.09, 1.26 1.09 M1.26 1.09 C1.26 1.09, 1.26 1.09, 1.26 1.09 M0.34 8.24 C2.98 5.2, 5.63 2.16, 7.56 -0.06 M0.34 8.24 C2.42 5.86, 4.49 3.47, 7.56 -0.06 M0.73 13.89 C4.09 10.02, 7.46 6.16, 12.54 0.3 M0.73 13.89 C5.01 8.97, 9.28 4.06, 12.54 0.3 M2.44 18.02 C8.56 10.99, 14.67 3.95, 18.19 -0.09 M2.44 18.02 C6.92 12.87, 11.39 7.72, 18.19 -0.09 M6.77 19.14 C12.54 12.5, 18.3 5.87, 23.17 0.27 M6.77 19.14 C10.5 14.85, 14.23 10.56, 23.17 0.27 M12.41 18.74 C17.8 12.55, 23.18 6.36, 28.82 -0.13 M12.41 18.74 C18.57 11.66, 24.72 4.58, 28.82 -0.13 M17.4 19.1 C22.22 13.56, 27.03 8.02, 33.8 0.23 M17.4 19.1 C22.87 12.81, 28.34 6.52, 33.8 0.23 M23.04 18.71 C27.7 13.35, 32.36 7.99, 39.45 -0.16 M23.04 18.71 C26.96 14.2, 30.87 9.7, 39.45 -0.16 M28.03 19.07 C33.57 12.7, 39.11 6.32, 44.43 0.2 M28.03 19.07 C34.05 12.14, 40.08 5.21, 44.43 0.2 M33.67 18.67 C38.97 12.58, 44.26 6.5, 49.42 0.56 M33.67 18.67 C37.53 14.23, 41.39 9.79, 49.42 0.56 M38.66 19.03 C44.3 12.55, 49.93 6.07, 55.06 0.17 M38.66 19.03 C42.88 14.18, 47.11 9.32, 55.06 0.17 M43.65 19.39 C47.72 14.7, 51.8 10.02, 60.05 0.53 M43.65 19.39 C49.51 12.65, 55.36 5.92, 60.05 0.53 M49.29 19 C54.27 13.27, 59.25 7.54, 65.69 0.13 M49.29 19 C53.81 13.81, 58.32 8.61, 65.69 0.13 M54.28 19.36 C60.3 12.43, 66.33 5.49, 70.68 0.49 M54.28 19.36 C58.04 15.03, 61.81 10.7, 70.68 0.49 M59.92 18.96 C63.91 14.37, 67.91 9.78, 76.32 0.1 M59.92 18.96 C65.4 12.66, 70.88 6.36, 76.32 0.1 M64.91 19.32 C70.19 13.25, 75.47 7.17, 81.31 0.46 M64.91 19.32 C69.98 13.49, 75.05 7.66, 81.31 0.46 M70.55 18.93 C75.18 13.6, 79.81 8.28, 84.99 2.33 M70.55 18.93 C74.73 14.12, 78.91 9.32, 84.99 2.33 M75.54 19.29 C78.95 15.37, 82.35 11.45, 86.04 7.21 M75.54 19.29 C79.06 15.24, 82.57 11.2, 86.04 7.21 M81.18 18.89 C82.68 17.17, 84.18 15.44, 85.77 13.61 M81.18 18.89 C82.28 17.63, 83.38 16.37, 85.77 13.61 M2.5 18.46 C2.5 18.46, 2.5 18.46, 2.5 18.46 M2.5 18.46 C2.5 18.46, 2.5 18.46, 2.5 18.46 M8.9 18.72 C5.7 15.94, 2.51 13.16, 0.6 11.5 M8.9 18.72 C7.05 17.11, 5.2 15.5, 0.6 11.5 M14.55 18.33 C11.17 15.39, 7.8 12.46, 0.21 5.86 M14.55 18.33 C11.05 15.29, 7.56 12.25, 0.21 5.86 M20.94 18.59 C15.99 14.28, 11.03 9.97, 1.32 1.53 M20.94 18.59 C14.6 13.07, 8.26 7.56, 1.32 1.53 M27.34 18.85 C18.99 11.59, 10.64 4.33, 5.45 -0.18 M27.34 18.85 C19.35 11.9, 11.35 4.95, 5.45 -0.18 M32.98 18.45 C28.2 14.3, 23.42 10.14, 11.1 -0.57 M32.98 18.45 C25.02 11.53, 17.06 4.61, 11.1 -0.57 M39.38 18.71 C33.87 13.92, 28.35 9.13, 17.5 -0.31 M39.38 18.71 C32.55 12.78, 25.73 6.84, 17.5 -0.31 M45.78 18.98 C41.15 14.95, 36.51 10.92, 23.14 -0.71 M45.78 18.98 C40.99 14.81, 36.19 10.64, 23.14 -0.71 M51.42 18.58 C45.46 13.4, 39.49 8.21, 29.54 -0.44 M51.42 18.58 C43.03 11.29, 34.64 3.99, 29.54 -0.44 M57.82 18.84 C51.99 13.77, 46.16 8.7, 35.93 -0.18 M57.82 18.84 C51.8 13.61, 45.77 8.37, 35.93 -0.18 M64.22 19.1 C58.51 14.14, 52.8 9.18, 41.58 -0.58 M64.22 19.1 C55.79 11.78, 47.37 4.46, 41.58 -0.58 M69.86 18.71 C63.48 13.16, 57.1 7.61, 47.97 -0.32 M69.86 18.71 C65.37 14.8, 60.87 10.89, 47.97 -0.32 M76.26 18.97 C70.07 13.59, 63.88 8.21, 54.37 -0.05 M76.26 18.97 C70.52 13.98, 64.78 8.99, 54.37 -0.05 M81.9 18.58 C75.32 12.85, 68.74 7.13, 60.02 -0.45 M81.9 18.58 C73.25 11.06, 64.6 3.54, 60.02 -0.45 M85.28 16.21 C80.78 12.3, 76.28 8.39, 66.41 -0.19 M85.28 16.21 C79.04 10.79, 72.8 5.36, 66.41 -0.19 M86.4 11.88 C81.68 7.78, 76.96 3.68, 72.81 0.07 M86.4 11.88 C82.59 8.58, 78.79 5.27, 72.81 0.07 M86 6.24 C83.91 4.42, 81.82 2.6, 78.45 -0.32 M86 6.24 C84.14 4.62, 82.28 3.01, 78.45 -0.32" stroke="#4dabf7" stroke-width="0.5" fill="none"></path><path d="M4.72 0 C28.78 0, 52.85 0, 81 0 M4.72 0 C26.21 0, 47.7 0, 81 0 M81 0 C84.15 0, 85.72 1.57, 85.72 4.72 M81 0 C84.15 0, 85.72 1.57, 85.72 4.72 M85.72 4.72 C85.72 7.67, 85.72 10.61, 85.72 14.16 M85.72 4.72 C85.72 6.82, 85.72 8.92, 85.72 14.16 M85.72 14.16 C85.72 17.31, 84.15 18.88, 81 18.88 M85.72 14.16 C85.72 17.31, 84.15 18.88, 81 18.88 M81 18.88 C53.92 18.88, 26.84 18.88, 4.72 18.88 M81 18.88 C56.11 18.88, 31.22 18.88, 4.72 18.88 M4.72 18.88 C1.57 18.88, 0 17.31, 0 14.16 M4.72 18.88 C1.57 18.88, 0 17.31, 0 14.16 M0 14.16 C0 11.23, 0 8.3, 0 4.72 M0 14.16 C0 11.38, 0 8.59, 0 4.72 M0 4.72 C0 1.57, 1.57 0, 4.72 0 M0 4.72 C0 1.57, 1.57 0, 4.72 0" stroke="transparent" stroke-width="1" fill="none"></path></g><g transform="translate(32.03559643010044 50.697953249367856) rotate(0 41.442657470703125 7.054997726512283)"><text x="0" y="0" font-family="Virgil, Segoe UI Emoji" font-size="11.287996362419529px" fill="#2f9e44" text-anchor="start" style="white-space: pre;" direction="ltr" dominant-baseline="text-before-edge">["posts", "list"]</text></g><g transform="translate(32.39318495229645 78.29135704836699) rotate(0 75.54771423339844 7.054997726512283)"><text x="0" y="0" font-family="Virgil, Segoe UI Emoji" font-size="11.287996362419529px" fill="#2f9e44" text-anchor="start" style="white-space: pre;" direction="ltr" dominant-baseline="text-before-edge">["posts", "list", { page: 1 }]</text></g><g transform="translate(32.69377665403579 107.61773509308023) rotate(0 54.234169006347656 7.054997726512283)"><text x="0" y="0" font-family="Virgil, Segoe UI Emoji" font-size="11.287996362419529px" fill="#2f9e44" text-anchor="start" style="white-space: pre;" direction="ltr" dominant-baseline="text-before-edge">["posts", "detail", 1]</text></g><g transform="translate(32.78679088034198 135.1478325073531) rotate(0 56.721412658691406 7.054997726512283)"><text x="0" y="0" font-family="Virgil, Segoe UI Emoji" font-size="11.287996362419529px" fill="#2f9e44" text-anchor="start" style="white-space: pre;" direction="ltr" dominant-baseline="text-before-edge">["posts", "detail", 2]</text></g><g stroke-linecap="round"><g transform="translate(19.572382746626886 26.08635473425602) rotate(0 5.2981541978113 58.10573298120653)"><path d="M0 0 C-0.08 17.02, -2.3 82.73, -0.46 102.1 C1.38 121.46, 9.14 113.86, 11.06 116.21 M0 0 C-0.08 17.02, -2.3 82.73, -0.46 102.1 C1.38 121.46, 9.14 113.86, 11.06 116.21" stroke="#e03131" stroke-width="1" fill="none"></path></g><g transform="translate(19.572382746626886 26.08635473425602) rotate(0 5.2981541978113 58.10573298120653)"><path d="M2.14 118.09 C4.42 117.61, 6.7 117.13, 11.06 116.21 M2.14 118.09 C4.08 117.68, 6.02 117.27, 11.06 116.21" stroke="#e03131" stroke-width="1" fill="none"></path></g><g transform="translate(19.572382746626886 26.08635473425602) rotate(0 5.2981541978113 58.10573298120653)"><path d="M3.02 111.92 C5.07 113.01, 7.13 114.11, 11.06 116.21 M3.02 111.92 C4.77 112.85, 6.52 113.79, 11.06 116.21" stroke="#e03131" stroke-width="1" fill="none"></path></g></g><mask></mask><g stroke-linecap="round"><g transform="translate(19.86759186730785 26.08635473425602) rotate(0 5.636486358511206 42.92347674058692)"><path d="M0 0 C-0.07 12.94, -2.38 63.32, -0.43 77.63 C1.52 91.93, 9.68 84.48, 11.7 85.85 M0 0 C-0.07 12.94, -2.38 63.32, -0.43 77.63 C1.52 91.93, 9.68 84.48, 11.7 85.85" stroke="#e03131" stroke-width="1" fill="none"></path></g><g transform="translate(19.86759186730785 26.08635473425602) rotate(0 5.636486358511206 42.92347674058692)"><path d="M5.11 89.05 C6.43 88.4, 7.76 87.76, 11.7 85.85 M5.11 89.05 C7.09 88.09, 9.06 87.13, 11.7 85.85" stroke="#e03131" stroke-width="1" fill="none"></path></g><g transform="translate(19.86759186730785 26.08635473425602) rotate(0 5.636486358511206 42.92347674058692)"><path d="M4.6 84.06 C6.02 84.42, 7.45 84.78, 11.7 85.85 M4.6 84.06 C6.73 84.6, 8.86 85.13, 11.7 85.85" stroke="#e03131" stroke-width="1" fill="none"></path></g></g><mask></mask><g stroke-linecap="round"><g transform="translate(19.967224290685635 26.182498637381286) rotate(0 5.5957779302419794 29.223792826120643)"><path d="M0 0 C-0.04 8.78, -2.14 42.96, -0.23 52.7 C1.67 62.44, 9.48 57.49, 11.43 58.45 M0 0 C-0.04 8.78, -2.14 42.96, -0.23 52.7 C1.67 62.44, 9.48 57.49, 11.43 58.45" stroke="#e03131" stroke-width="1" fill="none"></path></g><g transform="translate(19.967224290685635 26.182498637381286) rotate(0 5.5957779302419794 29.223792826120643)"><path d="M5.46 61.03 C6.76 60.46, 8.06 59.9, 11.43 58.45 M5.46 61.03 C6.96 60.38, 8.45 59.73, 11.43 58.45" stroke="#e03131" stroke-width="1" fill="none"></path></g><g transform="translate(19.967224290685635 26.182498637381286) rotate(0 5.5957779302419794 29.223792826120643)"><path d="M5.2 56.59 C6.56 56.99, 7.91 57.4, 11.43 58.45 M5.2 56.59 C6.76 57.05, 8.32 57.52, 11.43 58.45" stroke="#e03131" stroke-width="1" fill="none"></path></g></g><mask></mask><g stroke-linecap="round"><g transform="translate(19.844932160566827 26.08635473425602) rotate(0 5.376603494588437 15.299475058124699)"><path d="M0 0 C0.04 4.81, -1.54 23.79, 0.25 28.89 C2.04 33.99, 9 30.31, 10.75 30.6 M0 0 C0.04 4.81, -1.54 23.79, 0.25 28.89 C2.04 33.99, 9 30.31, 10.75 30.6" stroke="#e03131" stroke-width="1" fill="none"></path></g><g transform="translate(19.844932160566827 26.08635473425602) rotate(0 5.376603494588437 15.299475058124699)"><path d="M6.14 33.25 C7.37 32.54, 8.6 31.83, 10.75 30.6 M6.14 33.25 C7.39 32.53, 8.64 31.81, 10.75 30.6" stroke="#e03131" stroke-width="1" fill="none"></path></g><g transform="translate(19.844932160566827 26.08635473425602) rotate(0 5.376603494588437 15.299475058124699)"><path d="M5.51 29.66 C6.91 29.91, 8.31 30.16, 10.75 30.6 M5.51 29.66 C6.94 29.91, 8.36 30.17, 10.75 30.6" stroke="#e03131" stroke-width="1" fill="none"></path></g></g><mask></mask><g transform="translate(122.89172484013102 10.21427346544715) rotate(0 44.50517272949219 7.054997726512283)"><text x="0" y="0" font-family="Virgil, Segoe UI Emoji" font-size="11.287996362419529px" fill="#1971c2" text-anchor="start" style="white-space: pre;" direction="ltr" dominant-baseline="text-before-edge">["posts", "lists"]</text></g><g transform="translate(10 10) rotate(0 24.505767822265625 7.054997726512283)"><text x="0" y="0" font-family="Virgil, Segoe UI Emoji" font-size="11.287996362419529px" fill="#e03131" text-anchor="start" style="white-space: pre;" direction="ltr" dominant-baseline="text-before-edge">["posts"]</text></g><g stroke-linecap="round"><g transform="translate(205.22511924490948 25.664343852322418) rotate(0 -9.855175460432747 29.011886122927535)"><path d="M0 0 C-0.23 8.68, 1.93 42.41, -1.35 52.08 C-4.64 61.76, -16.65 57.03, -19.71 58.02 M0 0 C-0.23 8.68, 1.93 42.41, -1.35 52.08 C-4.64 61.76, -16.65 57.03, -19.71 58.02" stroke="#1971c2" stroke-width="1" fill="none"></path></g><g transform="translate(205.22511924490948 25.664343852322418) rotate(0 -9.855175460432747 29.011886122927535)"><path d="M-10.57 54.93 C-13.87 56.05, -17.16 57.16, -19.71 58.02 M-10.57 54.93 C-13.81 56.03, -17.04 57.12, -19.71 58.02" stroke="#1971c2" stroke-width="1" fill="none"></path></g><g transform="translate(205.22511924490948 25.664343852322418) rotate(0 -9.855175460432747 29.011886122927535)"><path d="M-10.72 61.53 C-13.96 60.27, -17.2 59, -19.71 58.02 M-10.72 61.53 C-13.9 60.29, -17.09 59.05, -19.71 58.02" stroke="#1971c2" stroke-width="1" fill="none"></path></g></g><mask></mask><g stroke-linecap="round"><g transform="translate(205.12202540776093 26.448665593767146) rotate(0 -42.394794815747275 15.166922747579974)"><path d="M0 0 C-0.21 4.62, 2.22 22.65, -1.27 27.71 C-4.76 32.76, -12.02 30.03, -20.95 30.33 C-29.88 30.64, -44.19 29.62, -54.83 29.54 C-65.47 29.46, -79.8 29.81, -84.79 29.87 M0 0 C-0.21 4.62, 2.22 22.65, -1.27 27.71 C-4.76 32.76, -12.02 30.03, -20.95 30.33 C-29.88 30.64, -44.19 29.62, -54.83 29.54 C-65.47 29.46, -79.8 29.81, -84.79 29.87" stroke="#1971c2" stroke-width="1" fill="none"></path></g><g transform="translate(205.12202540776093 26.448665593767146) rotate(0 -42.394794815747275 15.166922747579974)"><path d="M-70.8 24.51 C-75.87 26.45, -80.94 28.39, -84.79 29.87 M-70.8 24.51 C-75.02 26.13, -79.24 27.74, -84.79 29.87" stroke="#1971c2" stroke-width="1" fill="none"></path></g><g transform="translate(205.12202540776093 26.448665593767146) rotate(0 -42.394794815747275 15.166922747579974)"><path d="M-70.63 34.76 C-75.76 32.98, -80.89 31.21, -84.79 29.87 M-70.63 34.76 C-74.9 33.28, -79.17 31.81, -84.79 29.87" stroke="#1971c2" stroke-width="1" fill="none"></path></g></g><mask></mask><g transform="translate(72.2477300137266 28.261202460620552) rotate(0 11.539421081542969 7.054997726512283)"><text x="0" y="0" font-family="Virgil, Segoe UI Emoji" font-size="11.287996362419529px" fill="#2f9e44" text-anchor="start" style="white-space: pre;" direction="ltr" dominant-baseline="text-before-edge">keys</text></g></svg>